# xmcd CD database file
#
# Track frame offsets:
#	150
#	13991
#	29178
#	44069
#	57613
#	75680
#	87456
#	108308
#	133887
#	151911
#
# Disc length: 2379 seconds
#
# Revision: 0
# Processed by: cddbd v1.4PL0 Copyright (c) Steve Scherf et al.
# Submitted via: CDex 1.50
#
DISCID=9109490a
DTITLE=Piano Project - Piano Project
DYEAR=1998
DGENRE=Jazz
TTITLE0=Leather
TTITLE1=Timbuktu
TTITLE2=Happy Phantom
TTITLE3=In the rain
TTITLE4=Nevercome
TTITLE5=I'm calling you
TTITLE6=Imminent blue
TTITLE7=Winter
TTITLE8=I'm changing
TTITLE9=Posession
EXTD=YEAR: 1998
EXTT0=
EXTT1=
EXTT2=
EXTT3=
EXTT4=
EXTT5=
EXTT6=
EXTT7=
EXTT8=
EXTT9=
PLAYORDER=
